<mxfile host="app.diagrams.net" modified="2023-04-02T22:00:43.003Z" agent="Mozilla/5.0 (Macintosh; Intel Mac OS X 10_15_7) AppleWebKit/537.36 (KHTML, like Gecko) Chrome/111.0.0.0 Safari/537.36" etag="8PvoloLgce3gJmxZNoOI" version="21.1.2" type="device">
  <diagram name="Page-1" id="X-0PKfQtnl4fATbN3AV_">
    <mxGraphModel dx="2284" dy="796" grid="1" gridSize="10" guides="1" tooltips="1" connect="1" arrows="1" fold="1" page="1" pageScale="1" pageWidth="850" pageHeight="1100" math="0" shadow="0">
      <root>
        <mxCell id="0" />
        <mxCell id="1" parent="0" />
        <mxCell id="SLmdqS__z21V0S5jzYKp-50" value="" style="rounded=0;whiteSpace=wrap;html=1;" vertex="1" parent="1">
          <mxGeometry x="-80" y="10" width="990" height="520" as="geometry" />
        </mxCell>
        <mxCell id="SLmdqS__z21V0S5jzYKp-3" value="role" style="rounded=0;whiteSpace=wrap;html=1;" vertex="1" parent="1">
          <mxGeometry x="-40" y="320" width="120" height="40" as="geometry" />
        </mxCell>
        <mxCell id="SLmdqS__z21V0S5jzYKp-4" value="enum[&quot;student&quot;, &quot;admin&quot;]" style="rounded=0;whiteSpace=wrap;html=1;" vertex="1" parent="1">
          <mxGeometry x="80" y="320" width="270" height="40" as="geometry" />
        </mxCell>
        <mxCell id="SLmdqS__z21V0S5jzYKp-5" value="submissions" style="rounded=0;whiteSpace=wrap;html=1;fillColor=#dae8fc;strokeColor=#6c8ebf;" vertex="1" parent="1">
          <mxGeometry x="-40" y="280" width="120" height="40" as="geometry" />
        </mxCell>
        <mxCell id="SLmdqS__z21V0S5jzYKp-47" style="edgeStyle=orthogonalEdgeStyle;rounded=0;orthogonalLoop=1;jettySize=auto;html=1;exitX=1;exitY=0.5;exitDx=0;exitDy=0;entryX=0;entryY=0.5;entryDx=0;entryDy=0;" edge="1" parent="1" source="SLmdqS__z21V0S5jzYKp-6" target="SLmdqS__z21V0S5jzYKp-17">
          <mxGeometry relative="1" as="geometry">
            <Array as="points">
              <mxPoint x="450" y="300" />
              <mxPoint x="450" y="150" />
            </Array>
          </mxGeometry>
        </mxCell>
        <mxCell id="SLmdqS__z21V0S5jzYKp-48" style="edgeStyle=orthogonalEdgeStyle;rounded=0;orthogonalLoop=1;jettySize=auto;html=1;exitX=1;exitY=0.5;exitDx=0;exitDy=0;entryX=0;entryY=0.5;entryDx=0;entryDy=0;" edge="1" parent="1" source="SLmdqS__z21V0S5jzYKp-6" target="SLmdqS__z21V0S5jzYKp-33">
          <mxGeometry relative="1" as="geometry">
            <Array as="points">
              <mxPoint x="450" y="300" />
              <mxPoint x="450" y="390" />
            </Array>
          </mxGeometry>
        </mxCell>
        <mxCell id="SLmdqS__z21V0S5jzYKp-6" value="Array[submissionID, questionID]" style="rounded=0;whiteSpace=wrap;html=1;fillColor=#dae8fc;strokeColor=#6c8ebf;" vertex="1" parent="1">
          <mxGeometry x="80" y="280" width="270" height="40" as="geometry" />
        </mxCell>
        <mxCell id="SLmdqS__z21V0S5jzYKp-7" value="email" style="rounded=0;whiteSpace=wrap;html=1;" vertex="1" parent="1">
          <mxGeometry x="-40" y="240" width="120" height="40" as="geometry" />
        </mxCell>
        <mxCell id="SLmdqS__z21V0S5jzYKp-8" value="string" style="rounded=0;whiteSpace=wrap;html=1;" vertex="1" parent="1">
          <mxGeometry x="80" y="240" width="270" height="40" as="geometry" />
        </mxCell>
        <mxCell id="SLmdqS__z21V0S5jzYKp-9" value="name" style="rounded=0;whiteSpace=wrap;html=1;" vertex="1" parent="1">
          <mxGeometry x="-40" y="200" width="120" height="40" as="geometry" />
        </mxCell>
        <mxCell id="SLmdqS__z21V0S5jzYKp-10" value="string" style="rounded=0;whiteSpace=wrap;html=1;" vertex="1" parent="1">
          <mxGeometry x="80" y="200" width="270" height="40" as="geometry" />
        </mxCell>
        <mxCell id="SLmdqS__z21V0S5jzYKp-12" value="User" style="rounded=0;whiteSpace=wrap;html=1;fillColor=#f5f5f5;fontColor=#333333;strokeColor=#666666;" vertex="1" parent="1">
          <mxGeometry x="-40" y="120" width="390" height="40" as="geometry" />
        </mxCell>
        <mxCell id="SLmdqS__z21V0S5jzYKp-13" value="codeResults" style="rounded=0;whiteSpace=wrap;html=1;" vertex="1" parent="1">
          <mxGeometry x="480" y="210" width="120" height="40" as="geometry" />
        </mxCell>
        <mxCell id="SLmdqS__z21V0S5jzYKp-14" value="string" style="rounded=0;whiteSpace=wrap;html=1;" vertex="1" parent="1">
          <mxGeometry x="600" y="210" width="270" height="40" as="geometry" />
        </mxCell>
        <mxCell id="SLmdqS__z21V0S5jzYKp-15" value="userCode" style="rounded=0;whiteSpace=wrap;html=1;" vertex="1" parent="1">
          <mxGeometry x="480" y="170" width="120" height="40" as="geometry" />
        </mxCell>
        <mxCell id="SLmdqS__z21V0S5jzYKp-16" value="string" style="rounded=0;whiteSpace=wrap;html=1;" vertex="1" parent="1">
          <mxGeometry x="600" y="170" width="270" height="40" as="geometry" />
        </mxCell>
        <mxCell id="SLmdqS__z21V0S5jzYKp-17" value="questionID" style="rounded=0;whiteSpace=wrap;html=1;fillColor=#dae8fc;strokeColor=#6c8ebf;" vertex="1" parent="1">
          <mxGeometry x="480" y="130" width="120" height="40" as="geometry" />
        </mxCell>
        <mxCell id="SLmdqS__z21V0S5jzYKp-18" value="string" style="rounded=0;whiteSpace=wrap;html=1;fillColor=#dae8fc;strokeColor=#6c8ebf;" vertex="1" parent="1">
          <mxGeometry x="600" y="130" width="270" height="40" as="geometry" />
        </mxCell>
        <mxCell id="SLmdqS__z21V0S5jzYKp-19" value="userID" style="rounded=0;whiteSpace=wrap;html=1;fillColor=#d5e8d4;strokeColor=#82b366;" vertex="1" parent="1">
          <mxGeometry x="480" y="90" width="120" height="40" as="geometry" />
        </mxCell>
        <mxCell id="SLmdqS__z21V0S5jzYKp-20" value="string" style="rounded=0;whiteSpace=wrap;html=1;fillColor=#d5e8d4;strokeColor=#82b366;" vertex="1" parent="1">
          <mxGeometry x="600" y="90" width="270" height="40" as="geometry" />
        </mxCell>
        <mxCell id="SLmdqS__z21V0S5jzYKp-21" value="Submission" style="rounded=0;whiteSpace=wrap;html=1;fillColor=#f5f5f5;fontColor=#333333;strokeColor=#666666;" vertex="1" parent="1">
          <mxGeometry x="480" y="50" width="390" height="40" as="geometry" />
        </mxCell>
        <mxCell id="SLmdqS__z21V0S5jzYKp-23" value="userID" style="rounded=0;whiteSpace=wrap;html=1;fillColor=#d5e8d4;strokeColor=#82b366;" vertex="1" parent="1">
          <mxGeometry x="-40" y="160" width="120" height="40" as="geometry" />
        </mxCell>
        <mxCell id="SLmdqS__z21V0S5jzYKp-46" style="edgeStyle=orthogonalEdgeStyle;rounded=0;orthogonalLoop=1;jettySize=auto;html=1;exitX=1;exitY=0.5;exitDx=0;exitDy=0;entryX=0;entryY=0.5;entryDx=0;entryDy=0;" edge="1" parent="1" source="SLmdqS__z21V0S5jzYKp-24" target="SLmdqS__z21V0S5jzYKp-19">
          <mxGeometry relative="1" as="geometry" />
        </mxCell>
        <mxCell id="SLmdqS__z21V0S5jzYKp-24" value="string" style="rounded=0;whiteSpace=wrap;html=1;fillColor=#d5e8d4;strokeColor=#82b366;" vertex="1" parent="1">
          <mxGeometry x="80" y="160" width="270" height="40" as="geometry" />
        </mxCell>
        <mxCell id="SLmdqS__z21V0S5jzYKp-29" value="questionContent" style="rounded=0;whiteSpace=wrap;html=1;" vertex="1" parent="1">
          <mxGeometry x="480" y="450" width="120" height="40" as="geometry" />
        </mxCell>
        <mxCell id="SLmdqS__z21V0S5jzYKp-30" value="string" style="rounded=0;whiteSpace=wrap;html=1;" vertex="1" parent="1">
          <mxGeometry x="600" y="450" width="270" height="40" as="geometry" />
        </mxCell>
        <mxCell id="SLmdqS__z21V0S5jzYKp-31" value="questionTitle" style="rounded=0;whiteSpace=wrap;html=1;" vertex="1" parent="1">
          <mxGeometry x="480" y="410" width="120" height="40" as="geometry" />
        </mxCell>
        <mxCell id="SLmdqS__z21V0S5jzYKp-32" value="string" style="rounded=0;whiteSpace=wrap;html=1;" vertex="1" parent="1">
          <mxGeometry x="600" y="410" width="270" height="40" as="geometry" />
        </mxCell>
        <mxCell id="SLmdqS__z21V0S5jzYKp-33" value="questionID" style="rounded=0;whiteSpace=wrap;html=1;fillColor=#dae8fc;strokeColor=#6c8ebf;" vertex="1" parent="1">
          <mxGeometry x="480" y="370" width="120" height="40" as="geometry" />
        </mxCell>
        <mxCell id="SLmdqS__z21V0S5jzYKp-34" value="string" style="rounded=0;whiteSpace=wrap;html=1;fillColor=#dae8fc;strokeColor=#6c8ebf;" vertex="1" parent="1">
          <mxGeometry x="600" y="370" width="270" height="40" as="geometry" />
        </mxCell>
        <mxCell id="SLmdqS__z21V0S5jzYKp-35" value="Question" style="rounded=0;whiteSpace=wrap;html=1;fillColor=#f5f5f5;fontColor=#333333;strokeColor=#666666;" vertex="1" parent="1">
          <mxGeometry x="480" y="330" width="390" height="40" as="geometry" />
        </mxCell>
        <mxCell id="SLmdqS__z21V0S5jzYKp-49" value="&lt;h1&gt;Database design&lt;/h1&gt;" style="text;html=1;strokeColor=none;fillColor=none;spacing=5;spacingTop=-20;whiteSpace=wrap;overflow=hidden;rounded=0;" vertex="1" parent="1">
          <mxGeometry x="70" y="40" width="200" height="40" as="geometry" />
        </mxCell>
      </root>
    </mxGraphModel>
  </diagram>
</mxfile>
